<svg width="351" height="150" viewBox="0 0 351 150" fill="none" xmlns="http://www.w3.org/2000/svg">
<path d="M85.8461 105.248V139.923C85.8461 145.734 83.0007 148.64 77.3162 148.64C70.6925 148.64 67.3816 144.112 67.3816 135.051C67.3816 133.927 67.4427 132.332 67.5691 130.271C67.6954 128.209 67.7586 126.804 67.7586 126.052L67.6638 104.778L26.3351 103.748C17.7758 103.748 11.8386 103.466 8.52774 102.906C2.84328 101.968 0 99.7505 0 96.2522C0 93.4405 1.71648 89.8791 5.1537 85.5678L13.2139 76.0102L59.3235 8.7212C63.5063 2.91037 68.8201 0.00390625 75.2543 0.00390625C82.3141 0.00390625 85.844 3.06623 85.844 9.18877V87.0674C86.9055 87.0063 88.186 86.9747 89.6856 86.9747C101.181 86.9747 106.931 90.0665 106.931 96.2522C106.931 100.751 104.555 103.592 99.8077 104.78C97.6847 105.342 93.0301 105.498 85.8461 105.248ZM67.6638 25.9642C50.9811 52.5794 37.9568 72.5098 28.5824 85.7553L67.6638 86.6925V25.9642Z" fill="currentColor"/>
<path d="M174.71 149.859C155.714 149.859 141.846 141.175 133.099 123.806C126.473 110.436 123.164 93.0374 123.164 71.6053C123.164 53.4862 127.475 37.6797 136.098 24.1835C146.281 8.37699 160.118 0.472656 177.614 0.472656C194.046 0.472656 206.853 7.46925 216.038 21.4666C223.974 33.5874 227.938 48.3641 227.938 65.7945C227.938 93.785 223.505 114.796 214.631 128.821C205.758 142.845 192.452 149.859 174.71 149.859ZM177.521 18.5602C165.9 18.5602 156.681 24.4658 149.874 36.2728C144.188 46.1463 141.344 57.4226 141.344 70.1036C141.344 90.6595 144.124 106.091 149.687 116.399C155.247 126.708 163.587 131.864 174.71 131.864C187.953 131.864 197.45 124.303 203.197 109.183C207.197 98.686 209.198 85.3773 209.198 69.2591C209.198 52.3278 206.557 39.6426 201.276 31.2096C195.996 22.7787 188.079 18.5602 177.521 18.5602Z" fill="currentColor"/>
<path d="M329.737 105.248V139.923C329.737 145.734 326.891 148.64 321.207 148.64C314.583 148.64 311.274 144.112 311.274 135.051C311.274 133.927 311.333 132.332 311.462 130.271C311.586 128.209 311.649 126.804 311.649 126.052L311.554 104.778L270.226 103.748C261.666 103.748 255.729 103.466 252.421 102.906C246.734 101.968 243.891 99.7505 243.891 96.2522C243.891 93.4405 245.607 89.8791 249.044 85.5678L257.105 76.0102L303.214 8.7212C307.399 2.91037 312.711 0.00390625 319.147 0.00390625C326.207 0.00390625 329.737 3.06623 329.737 9.18877V87.0674C330.798 87.0063 332.079 86.9747 333.578 86.9747C345.074 86.9747 350.823 90.0665 350.823 96.2522C350.823 100.751 348.448 103.592 343.7 104.78C341.577 105.342 336.923 105.498 329.737 105.248ZM311.557 25.9642C294.876 52.5794 281.85 72.5098 272.477 85.7553L311.557 86.6925V25.9642Z" fill="currentColor"/>
</svg>
