<svg width="24" height="25" viewBox="0 0 24 25" fill="none" xmlns="http://www.w3.org/2000/svg">
<path d="M20 20.9102C20.5523 20.9102 21 21.3579 21 21.9102C21 22.4624 20.5523 22.9102 20 22.9102H4C3.44772 22.9102 3 22.4624 3 21.9102C3 21.3579 3.44772 20.9102 4 20.9102H20Z" fill="currentColor"/>
<path d="M11.0001 3.91016C11.0001 3.35787 11.4478 2.91016 12.0001 2.91016C12.5524 2.91016 13.0001 3.35787 13.0001 3.91016V15.7363L18.3497 11.1514C18.769 10.7919 19.3994 10.8404 19.7589 11.2598C20.1183 11.6791 20.0698 12.3095 19.6505 12.6689L12.6505 18.6689C12.276 18.9899 11.7242 18.9899 11.3497 18.6689L4.34968 12.6689C3.93035 12.3095 3.88186 11.6791 4.24128 11.2598C4.6007 10.8404 5.23113 10.7919 5.65046 11.1514L11.0001 15.7363V3.91016Z" fill="currentColor"/>
</svg>

