<svg width="33" height="33" viewBox="0 0 33 33" fill="none" xmlns="http://www.w3.org/2000/svg">
<rect x="0.5" y="0.910156" width="32" height="32" rx="16" fill="#111116"/>
<g clip-path="url(#clip0_18229_6390)">
<path d="M21.0004 8.91349L18.9255 8.91016C16.5946 8.91016 15.0882 10.4557 15.0882 12.8478V14.6633H13.002C12.8218 14.6633 12.6758 14.8094 12.6758 14.9897V17.6202C12.6758 17.8004 12.8219 17.9464 13.002 17.9464H15.0882V24.5839C15.0882 24.7642 15.2341 24.9102 15.4144 24.9102H18.1362C18.3165 24.9102 18.4625 24.764 18.4625 24.5839V17.9464H20.9017C21.0819 17.9464 21.2279 17.8004 21.2279 17.6202L21.2289 14.9897C21.2289 14.9031 21.1944 14.8203 21.1334 14.759C21.0723 14.6977 20.989 14.6633 20.9025 14.6633H18.4625V13.1243C18.4625 12.3845 18.6387 12.009 19.6023 12.009L21 12.0085C21.1801 12.0085 21.3261 11.8624 21.3261 11.6823V9.23973C21.3261 9.0598 21.1803 8.91382 21.0004 8.91349Z" fill="white"/>
</g>
<defs>
<clipPath id="clip0_18229_6390">
<rect width="16" height="16" fill="white" transform="translate(9 8.91016)"/>
</clipPath>
</defs>
</svg>
