<svg width="198" height="64" viewBox="0 0 198 64" fill="none" xmlns="http://www.w3.org/2000/svg">
<g clip-path="url(#clip0_4_27332)">
<g opacity="0.5">
<path d="M11.9651 24.3511C11.9651 12.0979 25.2296 4.43968 35.8411 10.5663L49.0895 18.2152C59.701 24.3418 59.701 39.6582 49.0895 45.7848L35.8411 53.4338C25.2296 59.5603 11.9651 51.9021 11.9651 39.649L11.9651 24.3511Z" fill="url(#paint0_linear_4_27332)"/>
<path d="M11.9651 24.3511C11.9651 12.0979 25.2296 4.43968 35.8411 10.5663L49.0895 18.2152C59.701 24.3418 59.701 39.6582 49.0895 45.7848L35.8411 53.4338C25.2296 59.5603 11.9651 51.9021 11.9651 39.649L11.9651 24.3511Z" fill="#77CFFF" fill-opacity="0.42"/>
</g>
<g opacity="0.5">
<path d="M28.7562 10.5662C39.3677 4.43966 52.6321 12.0979 52.6321 24.351L52.6321 39.649C52.6321 51.9021 39.3677 59.5603 28.7562 53.4338L15.5078 45.7848C4.89623 39.6582 4.89623 24.3418 15.5078 18.2152L28.7562 10.5662Z" fill="url(#paint1_linear_4_27332)"/>
<path d="M28.7562 10.5662C39.3677 4.43966 52.6321 12.0979 52.6321 24.351L52.6321 39.649C52.6321 51.9021 39.3677 59.5603 28.7562 53.4338L15.5078 45.7848C4.89623 39.6582 4.89623 24.3418 15.5078 18.2152L28.7562 10.5662Z" fill="#77CFFF" fill-opacity="0.42"/>
</g>
<path d="M31.503 9.06106C31.9955 8.77672 32.6022 8.77672 33.0947 9.06106L51.7666 19.8413C52.2591 20.1256 52.5625 20.6511 52.5625 21.2198V42.7802C52.5625 43.3489 52.2591 43.8744 51.7666 44.1587L33.0947 54.939C32.6022 55.2233 31.9955 55.2233 31.503 54.939L12.8311 44.1587C12.3386 43.8744 12.0352 43.3489 12.0352 42.7802V21.2198C12.0352 20.6511 12.3386 20.1256 12.8311 19.8413L31.503 9.06106Z" fill="url(#paint2_linear_4_27332)"/>
<path d="M32.5475 38.5656L37.4312 31.2399C37.623 30.9521 37.5452 30.5631 37.2572 30.3714C37.1544 30.3028 37.0337 30.2663 36.9101 30.2663H33.0702V25.6545C33.0702 25.3087 32.7899 25.0282 32.4441 25.0282C32.2346 25.0282 32.0392 25.1328 31.923 25.3071L27.0392 32.6327C26.8475 32.9205 26.9253 33.3093 27.2131 33.5013C27.3159 33.5699 27.4367 33.6065 27.5604 33.6065H31.4003V38.2181C31.4003 38.5639 31.6806 38.8444 32.0264 38.8444C32.2359 38.8444 32.4315 38.7398 32.5475 38.5656Z" fill="url(#paint3_linear_4_27332)"/>
<path d="M32.5475 38.5656L37.4312 31.2399C37.623 30.9521 37.5452 30.5631 37.2572 30.3714C37.1544 30.3028 37.0337 30.2663 36.9101 30.2663H33.0702V25.6545C33.0702 25.3087 32.7899 25.0282 32.4441 25.0282C32.2346 25.0282 32.0392 25.1328 31.923 25.3071L27.0392 32.6327C26.8475 32.9205 26.9253 33.3093 27.2131 33.5013C27.3159 33.5699 27.4367 33.6065 27.5604 33.6065H31.4003V38.2181C31.4003 38.5639 31.6806 38.8444 32.0264 38.8444C32.2359 38.8444 32.4315 38.7398 32.5475 38.5656Z" fill="white"/>
<path d="M32.2567 47.7056L31.528 47.2621C31.2499 47.0931 24.6567 43.0696 22.4003 40.9082C19.9186 38.5321 19.7496 34.2868 19.7461 34.1073V22.7478H20.9781C22.527 22.7478 24.8609 21.7411 27.5467 19.9141C29.6975 18.4497 31.3309 16.9748 31.3485 16.9607L32.218 16.1687L33.091 16.9572C39.2934 22.5753 43.4789 22.7478 43.5176 22.7478L44.7461 22.7513V34.0756C44.7461 38.5744 42.1624 40.8977 42.0532 40.9962L41.9969 41.0455L32.2567 47.7056ZM22.2067 34.058C22.2172 34.2904 22.4108 37.6732 24.1885 39.3734C25.8465 40.961 30.4016 43.8546 32.1792 44.9599L40.3671 39.3594C40.4973 39.2291 40.9057 38.7926 41.3034 38.064C41.9476 36.8917 42.275 35.5471 42.275 34.0756V24.8282C41.6766 24.7085 40.874 24.4973 39.9024 24.1207C37.4031 23.1526 34.8158 21.5334 32.2039 19.2946C31.4752 19.9 30.3452 20.7977 29.0217 21.6988C26.4062 23.4765 24.1216 24.5396 22.2067 24.8705V34.058Z" fill="white"/>
</g>
<path d="M113.077 22.2227H86.4102V28.8887H110.41V35.1113H86.4102V48H79.2988V16H113.077V22.2227ZM152.188 22.2227H125.521V28.8887H149.521V35.1113H125.521V41.7773H152.188V48H118.41V16H152.188V22.2227ZM176.138 28.8887H179.084L188.797 16H197.701L185.644 32L197.701 48H188.797L179.084 35.1113H176.138L166.426 48H157.521L169.578 32L157.521 16H166.426L176.138 28.8887Z" fill="url(#paint4_linear_4_27332)"/>
<defs>
<linearGradient id="paint0_linear_4_27332" x1="11.9651" y1="-3.21855" x2="44.8279" y2="70.6887" gradientUnits="userSpaceOnUse">
<stop stop-color="#0EC6F0"/>
<stop offset="0.306543" stop-color="#2651FF"/>
<stop offset="0.638885" stop-color="#1B06FF"/>
<stop offset="1" stop-color="#5D06FF"/>
</linearGradient>
<linearGradient id="paint1_linear_4_27332" x1="52.6321" y1="-3.21855" x2="5.05796" y2="62.195" gradientUnits="userSpaceOnUse">
<stop stop-color="#0EC6F0"/>
<stop offset="0.306543" stop-color="#2651FF"/>
<stop offset="0.638885" stop-color="#1B06FF"/>
<stop offset="1" stop-color="#5D06FF"/>
</linearGradient>
<linearGradient id="paint2_linear_4_27332" x1="32.2988" y1="8.60156" x2="27.4119" y2="54.8824" gradientUnits="userSpaceOnUse">
<stop stop-color="#3CDBFF"/>
<stop offset="0.306543" stop-color="#5C7CFF"/>
<stop offset="0.638885" stop-color="#6068FF"/>
<stop offset="1" stop-color="#4D06FF"/>
</linearGradient>
<linearGradient id="paint3_linear_4_27332" x1="32.2352" y1="25.0282" x2="30.3694" y2="38.5877" gradientUnits="userSpaceOnUse">
<stop stop-color="#0EC6F0"/>
<stop offset="0.306543" stop-color="#2651FF"/>
<stop offset="0.638885" stop-color="#1B06FF"/>
<stop offset="1" stop-color="#5D06FF"/>
</linearGradient>
<linearGradient id="paint4_linear_4_27332" x1="79.2988" y1="32" x2="197.701" y2="32" gradientUnits="userSpaceOnUse">
<stop stop-color="#60FFEA"/>
<stop offset="1" stop-color="#3773FF"/>
</linearGradient>
<clipPath id="clip0_4_27332">
<rect width="64" height="64" fill="white" transform="translate(0.298828)"/>
</clipPath>
</defs>
</svg>
