<svg width="33" height="33" viewBox="0 0 33 33" fill="none" xmlns="http://www.w3.org/2000/svg">
<rect x="0.5" y="0.910156" width="32" height="32" rx="16" fill="#111116"/>
<g clip-path="url(#clip0_18229_6401)">
<path d="M20 8.91016H14C11.239 8.91016 9 11.1492 9 13.9102V19.9102C9 22.6712 11.239 24.9102 14 24.9102H20C22.761 24.9102 25 22.6712 25 19.9102V13.9102C25 11.1492 22.761 8.91016 20 8.91016ZM23.5 19.9102C23.5 21.8402 21.93 23.4102 20 23.4102H14C12.07 23.4102 10.5 21.8402 10.5 19.9102V13.9102C10.5 11.9802 12.07 10.4102 14 10.4102H20C21.93 10.4102 23.5 11.9802 23.5 13.9102V19.9102Z" fill="white"/>
<path d="M17 12.9102C14.791 12.9102 13 14.7012 13 16.9102C13 19.1192 14.791 20.9102 17 20.9102C19.209 20.9102 21 19.1192 21 16.9102C21 14.7012 19.209 12.9102 17 12.9102ZM17 19.4102C15.622 19.4102 14.5 18.2882 14.5 16.9102C14.5 15.5312 15.622 14.4102 17 14.4102C18.378 14.4102 19.5 15.5312 19.5 16.9102C19.5 18.2882 18.378 19.4102 17 19.4102Z" fill="white"/>
<path d="M21.2986 13.1441C21.593 13.1441 21.8316 12.9055 21.8316 12.6111C21.8316 12.3168 21.593 12.0781 21.2986 12.0781C21.0043 12.0781 20.7656 12.3168 20.7656 12.6111C20.7656 12.9055 21.0043 13.1441 21.2986 13.1441Z" fill="white"/>
</g>
<defs>
<clipPath id="clip0_18229_6401">
<rect width="16" height="16" fill="white" transform="translate(9 8.91016)"/>
</clipPath>
</defs>
</svg>
