<svg t="1761532446459" class="icon" viewBox="0 0 3089 1024" version="1.1" xmlns="http://www.w3.org/2000/svg" p-id="5405" width="200" height="200"><path d="M511.999744 511.999744m-494.933086 0a494.933086 494.933086 0 1 0 989.866172 0 494.933086 494.933086 0 1 0-989.866172 0Z" fill="#FBDA19" p-id="5406"></path><path d="M960.528586 302.506515A493.055753 493.055753 0 0 1 1006.93283 511.999744c0 8.584529-0.221867 17.100791-0.648533 25.565854L614.399693 391.475004l346.128893-88.968489z" fill="#FFFFFF" p-id="5407"></path><path d="M956.278989 285.968924a17.066658 17.066658 0 0 1 19.71199 9.301328A510.088278 510.088278 0 0 1 1023.999488 511.999744c0 8.840529-0.221867 17.646925-0.682666 26.45332a17.066658 17.066658 0 0 1-22.988789 15.103993l-391.884604-146.090594c-15.667192-5.836797-14.472526-28.364786 1.706666-32.52905l346.128894-88.968489z m-284.979058 108.509812L989.866172 513.228543V511.999744c0-66.047967-13.397327-130.167402-38.997314-189.388705l-279.568927 71.85063z" fill="#243190" p-id="5408"></path><path d="M306.278247 962.286452L341.333163 494.933086h341.333162l35.054916 467.353366A493.106953 493.106953 0 0 1 511.999744 1006.93283c-73.38663 0-143.069795-15.974392-205.721497-44.646378z" fill="#FFFFFF" p-id="5409"></path><path d="M299.178517 977.800044a17.066658 17.066658 0 0 1-9.915728-16.793591l35.054916-467.353366A17.066658 17.066658 0 0 1 341.333163 477.866428h341.333162a17.066658 17.066658 0 0 1 17.015458 15.786659l35.054916 467.353366a17.066658 17.066658 0 0 1-9.915728 16.793591A510.139478 510.139478 0 0 1 511.999744 1023.999488c-74.410629 0-146.602593-15.889059-212.821227-46.199444zM511.999744 989.866172c65.450634 0 129.006869-13.141327 187.801506-38.314648L666.828467 511.999744H357.171021l-32.972783 439.55178A476.245095 476.245095 0 0 0 511.999744 989.866172z" fill="#243190" p-id="5410"></path><path d="M511.999744 1023.999488c282.777459 0 511.999744-229.222285 511.999744-511.999744C1023.999488 229.222285 794.777203 0 511.999744 0 229.222285 0 0 229.222285 0 511.999744c0 282.777459 229.222285 511.999744 511.999744 511.999744z m0-34.133316C248.080943 989.866172 34.133316 775.918545 34.133316 511.999744S248.080943 34.133316 511.999744 34.133316s477.866428 213.947626 477.866428 477.866428-213.947626 477.866428-477.866428 477.866428z" fill="#243190" p-id="5411"></path><path d="M358.399821 290.133188h307.199846l-17.066658 204.799898H375.466479z" fill="#FFDA00" p-id="5412"></path><path d="M341.384363 291.549721A17.066658 17.066658 0 0 1 358.399821 273.06653h307.199846a17.066658 17.066658 0 0 1 17.015458 18.483191l-17.066658 204.799897A17.066658 17.066658 0 0 1 648.533009 511.999744H375.466479a17.066658 17.066658 0 0 1-17.015458-15.650126l-17.066658-204.799897zM391.167804 477.866428h241.66388l14.216526-170.666582H376.951278l14.216526 170.666582z" fill="#243190" p-id="5413"></path><path d="M511.999744 119.466607l170.666581 170.666581H341.333163z" fill="#FF6767" p-id="5414"></path><path d="M499.933617 107.40048a17.066658 17.066658 0 0 1 24.132254 0l170.666582 170.666581c10.751995 10.751995 3.140265 29.132785-12.066128 29.132785H341.333163c-15.189326 0-22.818122-18.380791-12.066128-29.132785l170.666582-170.666581zM382.532075 273.06653h258.935338L511.999744 143.598862 382.532075 273.06653z" fill="#243190" p-id="5415"></path><path d="M684.219391 548.846659l8.106663 102.553549-365.738484 64.494901 8.328529-105.471948L684.202325 548.863726z" fill="#FF6767" p-id="5416"></path><path d="M681.266859 532.036001a17.066658 17.066658 0 0 1 19.96799 15.462392l8.106663 102.570615a17.066658 17.066658 0 0 1-14.04586 18.141858L329.557169 732.671634a17.066658 17.066658 0 0 1-19.985057-18.141858l8.328529-105.454881a17.066658 17.066658 0 0 1 14.04586-15.462392l349.320358-61.593569zM350.890491 624.946888l-5.56373 70.314631 328.755035-57.975438-5.393064-68.369032-317.798241 56.029839z" fill="#243190" p-id="5417"></path><path d="M700.176717 750.830558l8.089596 102.570615-398.079801 70.178099 8.328529-105.454881 381.661676-67.293833z" fill="#FF6767" p-id="5418"></path><path d="M697.207118 734.036966a17.066658 17.066658 0 0 1 19.96799 15.445326l8.106663 102.570615a17.066658 17.066658 0 0 1-14.04586 18.141858L313.15611 940.372863a17.066658 17.066658 0 0 1-19.96799-18.158924l8.311463-105.437814a17.066658 17.066658 0 0 1 14.045859-15.462392l381.661676-67.3109zM334.506499 832.63105l-5.546663 70.297565 361.096352-63.675701-5.393064-68.369033-350.156625 61.747169zM358.399821 392.533137h289.279855v-34.133316H358.399821z" fill="#243190" p-id="5419"></path><path d="M460.731503 494.933086v-119.466607h-34.133316v119.466607zM528.998136 494.933086v-119.466607h-34.133317v119.466607zM597.264768 494.933086v-119.466607h-34.133316v119.466607z" fill="#243190" p-id="5420"></path><path d="M2628.265353 819.19959h307.199846v-51.199974a153.599923 153.599923 0 0 0-307.199846 0v51.199974z m307.199846 68.266633h-307.199846v17.066658a34.133316 34.133316 0 1 1-68.266633 0v-136.533265c0-122.538605 99.32795-221.866556 221.866556-221.866556s221.866556 99.32795 221.866555 221.866556v136.533265a34.133316 34.133316 0 0 1-68.266632 0v-17.066658z m-614.399693-563.199718V153.599923a34.133316 34.133316 0 1 1 68.266633 0v170.666582h68.266632a34.133316 34.133316 0 1 1 0 68.266632h-68.266632v328.106503l57.480504-19.148791a34.133316 34.133316 0 1 1 21.572256 64.750901l-101.631949 33.894383-1.501866 0.494933-101.666082 33.877317a34.133316 34.133316 0 1 1-21.572256-64.750901L2321.065506 743.389495V392.533137h-68.266632a34.133316 34.133316 0 1 1 0-68.266632h68.266632z m375.466479-153.599924h153.599923V119.466607a34.133316 34.133316 0 1 1 68.266633 0v51.199974h119.466607a34.133316 34.133316 0 0 1 0 68.266633h-119.466607v51.199974a34.133316 34.133316 0 1 1-68.266633 0v-51.199974h-153.599923v51.199974a34.133316 34.133316 0 1 1-68.266632 0v-51.199974h-102.399949a34.133316 34.133316 0 1 1 0-68.266633h102.399949V119.466607a34.133316 34.133316 0 1 1 68.266632 0v51.199974z m-733.8663 68.266633v563.199718a136.533265 136.533265 0 0 1-136.533265 136.533265h-34.133316a34.133316 34.133316 0 1 1 0-68.266632h34.133316a68.266633 68.266633 0 0 0 68.266633-68.266633V238.933214h-187.73324a34.133316 34.133316 0 1 1 0-68.266633h426.666454a34.133316 34.133316 0 1 1 0 68.266633h-170.666582zM1493.72512 601.804499c1.860266 0.341333 3.720531 0.8192 5.56373 1.484799 33.484783 11.980794 70.519431 42.291179 113.493277 90.914088 47.308776 53.538107 68.164233 85.674624 73.48903 102.826615a34.133316 34.133316 0 1 1-65.160501 20.309324c0.085333 0.324267-1.774932-3.413332-7.09973-11.656528-10.547195-16.247459-27.545586-38.161048-52.39464-66.2869-34.730649-39.304514-63.197835-62.975969-83.217025-71.031431-29.917852 111.428211-76.595162 198.297501-140.424463 260.60787a34.133316 34.133316 0 0 1-47.684243-48.861843c126.361537-123.340738 179.19991-371.404614 154.077789-744.498827a34.133316 34.133316 0 0 1 68.095966-4.590932c12.45866 184.883108 6.365863 341.811029-18.73919 470.783765z m-171.178581-296.447852a34.133316 34.133316 0 0 1 67.652233 9.267196L1357.891588 550.741058a34.133316 34.133316 0 1 1-67.652233-9.250129l32.32425-236.151348z m299.024917-9.966928a34.133316 34.133316 0 1 1 64.238901 23.142388l-70.058632 194.42337a34.133316 34.133316 0 1 1-64.221834-23.125322l70.041565-194.440436z m1260.816436 176.810578a1247.094843 1247.094843 0 0 1-100.266616-83.370625c-38.741314 37.085848-77.550895 70.212232-116.445809 99.379151-47.155176 35.362116-94.378619 64.853301-141.636196 88.456489a34.133316 34.133316 0 0 1-30.481051-61.064503c43.468778-21.708789 87.210623-49.032509 131.157268-82.005292 44.219711-33.160517 88.575956-71.970097 133.017533-116.394609a34.133316 34.133316 0 0 1 48.127976-0.136533c34.542916 34.16745 73.710896 67.669299 117.486875 100.522616 44.014911 33.006917 93.71302 66.099167 149.111392 99.259684a34.133316 34.133316 0 1 1-35.054916 58.572771c-57.343971-34.338116-109.021812-68.727432-155.016456-103.219149zM2730.665301 529.066402a34.133316 34.133316 0 1 1 0-68.266632h102.399949a34.133316 34.133316 0 1 1 0 68.266632h-102.399949z" fill="#333333" p-id="5421"></path></svg>