<svg t="1761537839240" class="icon" viewBox="0 0 5783 1024" version="1.1" xmlns="http://www.w3.org/2000/svg" p-id="7105" width="200" height="200"><path d="M1346.004663 388.670992v-135.10944h-418.746724V0.231352h-157.087859V189.708461C658.195818 138.811069 423.142408 105.727764 166.341931 105.727764H0v135.10944h166.341931c258.188588 0 494.398756 33.314656 603.596797 84.674752v75.189329c-111.74291-51.128744-347.027672-84.212048-603.596797-84.212048H0v135.340792h166.341931c258.188588 0 494.398756 33.314656 603.596797 84.674752v75.189329c-111.74291-51.128744-347.027672-83.980697-603.596797-83.980697H0v135.10944h166.341931c258.188588 0 494.398756 33.546008 603.596797 84.674752v274.383213h575.834583v-135.109441h-418.746724v-75.883384h418.746724v-135.10944h-418.746724v-75.883384h418.746724v-135.340792h-418.746724v-75.652033l418.978076-0.231352z" fill="#00377A" p-id="7106"></path><path d="M1815.648779 973.759647c-3.93298 11.567589-16.425976 48.12117-77.502847 48.121171-50.897392 0-85.368807-29.381676-85.368807-75.883385 0-41.643321 26.374103-78.659606 87.219622-78.659605 10.41083 0 36.553581 0.925407 57.375241 17.120032 9.485423 7.634609 14.112459 16.194625 17.814088 26.605454l-37.478989 7.403257c-4.627036-16.194625-20.127605-24.985992-39.329803-24.985992-46.501708 0-46.501708 40.949265-46.501708 50.434688 0 14.112459 2.082166 27.993566 9.948127 37.710341 6.709202 8.328664 19.202198 14.575162 36.090878 14.575162 24.985992 0 36.553581-15.269218 41.180617-31.695194l36.553581 9.254071zM1848.26938 870.114049h37.478989v58.763353h74.03257v-58.763353h37.71034v149.221899h-37.71034v-65.241202h-74.03257v65.241202h-37.478989zM2034.738916 870.114049h37.71034v149.453251h-37.71034zM2110.390948 870.114049h36.553582l76.114736 99.481266h0.462703v-99.481266h35.165471v149.221899h-37.941692l-74.957977-97.3991h-0.462704v97.3991h-34.934119v-149.221899zM2587.901025 968.207204c1.850814 7.634609 6.940553 28.456269 40.717913 28.45627 26.374103 0 37.016285-10.873534 37.016285-20.590309 0-12.492996-13.187052-15.037866-47.658467-21.978419-18.739494-3.701628-59.920111-12.030293-59.920111-44.650894 0-16.425976 13.418403-42.106024 68.017424-42.106024 36.553581 0 70.09959 11.798941 71.719052 45.344949l-37.478989 1.156759c-1.619462-7.634609-4.627036-21.747067-34.240063-21.747068-11.104885 0-31.695194 2.776221-31.695194 14.806514 0 9.485423 11.798941 13.881107 41.874672 19.43355 28.456269 5.321091 67.323368 12.724348 67.323368 49.509281 0 18.276791-14.34381 33.546008-30.538435 39.329803a135.803496 135.803496 0 0 1-43.956838 6.47785c-20.127605 0-69.868238-1.388111-77.040143-51.128744l35.859526-2.313518zM2816.245233 867.337828c-58.069297 0-90.458546 30.307083-90.458547 78.196902 0 34.240064 20.590309 76.346088 90.92125 76.346088 65.703906 0 90.227195-37.941692 90.227195-76.808792 0-43.725487-29.613028-77.734198-90.689898-77.734198z m0.231352 128.862942c-22.903826 0-36.090878-9.948127-42.337376-18.970846a51.128744 51.128744 0 0 1-9.485423-32.620601c0-21.978419 9.022719-51.360095 51.822799-51.360096 46.039004 0 51.591447 34.008712 51.591447 50.897392-0.231352 43.494135-31.695194 52.054151-51.591447 52.054151zM2974.952555 870.114049v80.741772c0 17.814087 0 24.985992 4.858387 32.157897 7.171905 10.642182 21.747067 13.418403 33.314657 13.418404 36.090878 0 36.090878-18.276791 36.090878-43.725487v-82.592586h37.478988V948.542303c0 26.605455-1.388111 41.411969-10.41083 52.979558-14.575162 17.582735-41.411969 20.590309-62.464981 20.590308-76.57744 0-76.57744-37.71034-76.57744-72.413107v-79.585013h37.710341zM3167.668589 895.331393h-55.293076v-25.217344h148.296492v25.217344h-55.293076v124.004555h-37.71034zM3285.889349 870.114049h37.478988v58.763353h74.263922v-58.763353h37.478989v149.221899h-37.478989v-65.241202h-74.263922v65.241202h-37.478988zM3474.672402 870.114049h138.811069v25.217344h-101.100728v33.083305h93.928823v25.217344h-93.928823v40.486562h104.571005v25.217344h-142.281346zM3838.588754 870.114049h36.553582l75.883384 99.481266h0.462703v-99.481266h34.934119v149.221899h-37.71034l-74.726625-97.3991h-0.694056v97.3991h-34.702767v-149.221899zM4212.684584 874.509733c-9.948127-3.93298-20.127605-4.627036-52.979558-4.627036h-61.07687v149.453251h37.941692v-56.218483h24.754641a165.647875 165.647875 0 0 0 50.203336-5.321091c11.798941-4.395684 30.538435-15.500569 30.538436-42.106024 0.231352-24.985992-17.351384-36.553581-29.381677-41.180617z m-55.061724 63.390388h-20.82166V895.331393h18.045439c22.672475 0 31.695194 0 39.792506 5.552443a17.351384 17.351384 0 0 1 8.560016 15.037866c0 21.978419-26.142751 21.978419-45.576301 21.978419zM4355.428633 867.337828c-58.069297 0-90.458546 30.307083-90.458546 78.196902 0 34.240064 20.590309 76.346088 90.92125 76.346088 65.472554 0 90.458546-37.941692 90.458546-76.808792 0-43.725487-29.613028-77.734198-90.92125-77.734198z m0.231352 128.862942c-22.903826 0-36.090878-9.948127-42.337376-18.970846a49.740633 49.740633 0 0 1-9.485423-32.620601c0-21.978419 8.791368-51.360095 51.822799-51.360096 46.039004 0 51.591447 34.008712 51.591447 50.897392 0 43.494135-31.695194 52.054151-51.591447 52.054151zM4444.499069 870.114049h38.867099l27.993566 102.488839h0.462704l33.77736-102.488839h45.113597l32.620601 104.339654h0.462704l28.224917-104.339654h38.173044l-45.576301 149.221899h-40.25521l-36.784933-111.74291h-0.462704l-36.784933 111.74291h-41.180617zM4710.322266 870.114049h139.04242v25.217344h-101.33208v33.083305h94.160175v25.217344h-94.160175v40.486562h104.571005v25.217344h-142.281345zM5030.050427 990.185624c-18.970846-24.060585-26.142751-29.381676-41.874672-36.553582V953.169339a79.585013 79.585013 0 0 0 21.053012-4.627036c18.045439-5.783795 28.456269-20.358957 28.456269-36.553581 0-14.806514-9.022719-31.926546-30.769787-38.404396-5.552443-1.388111-14.806514-3.701628-42.800079-3.701629h-79.816365v149.453251h37.941692v-62.464981h7.403257c25.217344 0 27.762214 3.007573 50.434689 29.84438l27.068158 32.620601h45.113597l-22.209771-29.150324z m-79.816364-56.912539h-27.762214V895.331393h29.381676c25.217344 0 30.307083 0 37.016285 3.238925a15.731921 15.731921 0 0 1 9.716775 15.269218c0 4.395684-1.156759 14.112459-14.34381 17.582735a180.223038 180.223038 0 0 1-34.008712 1.850814zM5231.095125 939.288232h81.435827v59.688759a144.363511 144.363511 0 0 1-80.047716 23.135178c-67.55472 0-94.85423-38.404396-94.85423-77.734198 0-36.32223 24.985992-76.808791 92.540712-76.808791 30.307083 0 69.636886 7.171905 80.047717 43.725486l-37.941693 5.783795c-7.171905-20.82166-30.538435-23.829233-41.874672-23.829234-15.731921 0-32.851953 3.93298-43.725487 16.657329a49.740633 49.740633 0 0 0-10.179478 33.083304c0 22.209771 9.485423 52.979558 53.442261 52.979558a84.674752 84.674752 0 0 0 43.956839-12.9557v-18.508142h-43.031431V939.288232h0.231351zM5495.067508 990.185624c-18.970846-24.060585-26.142751-29.381676-42.106024-36.553582V953.169339a75.883384 75.883384 0 0 0 20.82166-4.627036c18.508142-5.783795 28.687621-20.358957 28.687621-36.553581 0-14.806514-8.791368-31.926546-30.769787-38.404396-5.552443-1.388111-14.575162-3.701628-42.80008-3.701629h-79.585012v149.453251h37.478988v-62.464981h7.634609c25.217344 0 27.530862 3.007573 50.66604 29.84438l27.068158 32.620601h45.113598l-22.209771-29.150324z m-80.047717-56.912539h-27.993565V895.331393h29.84438c24.985992 0 29.84438 0 37.016285 3.238925a16.194625 16.194625 0 0 1 9.485423 15.269218c0 4.395684-1.388111 14.112459-14.575163 17.582735a175.133298 175.133298 0 0 1-33.77736 1.850814zM5536.248125 870.114049h37.478988v149.453251h-37.478988zM5752.099337 895.331393c-20.358957-25.217344-51.128744-25.217344-72.413108-25.217344h-68.942831v149.453251h70.793645c12.261644 0 43.494135 0 62.464981-16.657328 23.829233-20.590309 23.829233-47.658467 23.829234-56.681187 0-29.150324-9.254071-43.262783-15.731921-50.897392z m-75.420681 99.018563h-27.993566V895.331393h16.657329c36.553581 0 63.159036 0 63.159036 49.740633 0.231352 47.889819-22.903826 49.277929-51.822799 49.27793zM1738.145932 409.492653h151.072714v105.959116h-151.072714V409.492653z m1.850815 188.783053l-1.850815-9.485423h151.072714v120.302926l-2.776222 69.405535h98.787211l-2.776222-69.405535v-120.302926h154.54299l-0.925407 10.642182h95.316934l-2.313518-71.950404v-132.333219l2.54487-60.151463-74.726626 2.54487h-174.439243v-37.016285l2.776222-73.107163h-98.787211l2.776222 73.107163v37.016285h-170.04356l-72.181755-2.54487 2.082166 60.151463v132.333219l-2.082166 70.793645h93.003416z m242.688018-82.823937v-106.190468h154.54299v105.959116H1982.684765z m710.018617 88.37638v-77.96555h47.195763a210.992824 210.992824 0 0 1-38.635747 26.374103c23.597882 17.351384 38.173044 28.918973 43.494134 35.165471l14.575163 16.425976h-66.629313z m-237.59828 60.614167l59.920112-1.850815h268.136714l63.62174 1.850815v-62.002278l-51.128744 1.388111 31.926546-29.150324-16.657328-14.112459-24.060585-19.43355a252.636145 252.636145 0 0 1-16.194625-15.269217l51.360095 2.544869v-63.853091l-44.18819 0.925407h-85.137455v-56.681187h89.301787l59.457408 2.776222v-64.778499l-63.62174 1.388111h-254.949663l-58.994704-1.388111v63.853092l58.994704-1.619463h88.145029v56.912538h-70.330942l-58.994704-0.925407v62.464981l58.994704-1.619462h70.330942v77.96555h-95.316934l-60.614167-1.388111v62.002278z m-92.078009-352.117411v388.670992l-2.082166 67.092017h82.823938v-7.865961h414.582392v12.030293h84.674752l-2.54487-67.092017V312.324905l2.54487-62.696333-67.786072 2.082166h-445.583531l-68.711479-2.082166 2.082166 62.696333z m80.741772 2.313517h414.582392v383.11855h-414.582392V314.638422z m962.886114 142.049994a192.021978 192.021978 0 0 1-32.851953 53.904965 96.010989 96.010989 0 0 1 21.284364 7.171905h-75.420681a113.825076 113.825076 0 0 1 27.530862-17.582735l-11.798941-12.261644-18.045439-18.276791a381.267735 381.267735 0 0 1-14.34381-12.9557h103.645598z m-360.908779-99.712618l68.017424-2.082166h201.507401l-0.925407 38.635748h-172.588429l-63.62174-2.082166 2.54487 54.367668v246.852351l-2.54487 75.189329h87.682325l-1.38811-75.189329v-235.978817h96.242341a207.522548 207.522548 0 0 1-31.695194 18.508143c12.724348 10.41083 21.515716 18.508142 26.142751 24.291937l15.269217 18.27679h-24.985992l-52.748206-1.619462v62.464981l52.979558-1.388111h72.875811v30.769787h-53.673613l-72.181756-1.156759v62.696333l72.181756-1.850814h53.673613v27.068158l-1.388111 69.174183h88.145029l-1.850814-69.174183v-27.068158h47.889818l66.397962 1.850814v-62.696333l-66.397962 1.388111h-47.889818v-31.001139h61.539573l52.285503 1.388111v-62.464981l-52.285503 1.388111h-10.873533a344.25145 344.25145 0 0 0 31.926546-48.121171 126.318073 126.318073 0 0 1-30.538436-12.9557h87.913677v223.023117c0 9.254071-1.850814 15.731921-5.321091 19.202198-3.238925 3.701628-11.567589 5.321091-24.291937 5.321091-14.806514 0-29.613028-1.388111-43.956838-4.164332l8.328664 18.045439a217.933378 217.933378 0 0 1 13.649755 38.404396l4.858387 24.75464c64.315795-0.925407 102.257487-7.634609 114.056429-19.896253s17.582735-25.680048 17.582735-40.717913V445.814882l2.54487-54.367668-69.868238 2.082166h-155.468397l0.462703-38.635748h179.991686l77.96555 2.082166v-70.562293l-77.96555 2.082166h-179.066279l1.850815-33.546008 1.38811-24.754641a875.203788 875.203788 0 0 1-94.391526-4.858387l1.850814 26.374103-2.313518 36.784933h-201.507401l-67.786072-2.082166-0.231352 70.562293z m863.636199 269.756177a272.995102 272.995102 0 0 0 54.599021-103.414246c6.47785-31.463842 10.873534-66.629313 12.261644-105.959116l0.925407-31.001138h-139.04242l-76.346088 2.313517v-74.726625l77.96555 2.082166h207.522548a241.993963 241.993963 0 0 0-53.21091-65.241202c24.291937-7.865961 48.815226-20.127605 73.338515-37.016285 10.642182 10.41083 22.672475 24.523289 36.322229 42.337376 14.112459 17.814087 24.754641 32.620601 32.620602 44.419542a281.555118 281.555118 0 0 0-27.993566 15.500569h193.410089l79.585013-2.082166v74.957977l-87.219622-2.313518h-227.187449a639.919027 639.919027 0 0 0-2.544869 36.784934l-1.619463 32.157897h183.230611l58.532001-1.38811-2.776222 61.770925a8074.177165 8074.177165 0 0 1-3.701628 122.153741 419.672131 419.672131 0 0 1-6.246498 59.688759 83.749345 83.749345 0 0 1-23.36653 43.494135 135.340792 135.340792 0 0 1-56.681187 29.84438c-25.448696 7.403257-60.382815 12.9557-104.339653 15.963273l-6.246498-27.530862a102.488839 102.488839 0 0 0-13.649755-31.926546l-13.649755-20.82166c18.739494 0.462704 39.098451 0.462704 61.539573 0 22.209771-0.694055 37.941692-4.858387 47.889819-12.261645a60.382815 60.382815 0 0 0 19.896253-23.36653 111.280207 111.280207 0 0 0 6.246498-39.098451l3.238925-71.256348v-39.561155h-159.170025c-2.776221 11.336237-5.321091 22.903826-8.560016 34.471416-3.007573 11.567589-10.642182 32.620601-23.135178 62.696332-12.261644 30.075732-38.404396 59.68876-77.96555 88.839084a680.405589 680.405589 0 0 1-131.639164 73.801218 565.192402 565.192402 0 0 0-41.643321-52.285502l-19.896253-17.814087c76.57744-18.508142 129.325646-46.501708 158.707322-84.212049z m669.532055-258.419939h130.251053v68.017423h-130.251053v-68.017423z m-83.749345-16.194625v226.724746l-2.313518 60.845518h86.062863v-9.022719h130.251053v85.137455a90.227195 90.227195 0 0 0 4.858387 32.389249c3.470277 8.097312 11.336237 15.269218 24.060586 22.209771 13.187052 6.246498 32.851953 9.948127 59.226056 9.948127s60.845518 0.462704 102.72019 1.388111c43.494135 0.925407 76.114736 1.156759 97.3991 0.231352 21.053012-0.925407 37.016285-3.238925 47.427115-6.709202s20.358957-9.716775 29.381677-18.276791 20.358957-33.083305 34.240063-73.338514a423.605111 423.605111 0 0 1-82.592586-33.777361l-4.164332 23.36653c-2.313518 14.806514-7.865961 25.217344-16.425976 31.232491-8.791368 5.783795-20.127605 9.485423-33.77736 10.873534s-36.784933 1.619462-68.942831 0.925407l-74.957977-1.850815c-16.194625-0.462704-26.142751-2.776221-29.84438-6.709201a20.358957 20.358957 0 0 1-5.783794-14.112459v-62.464981h148.759195v11.104886h86.062863l-2.082167-58.300649v-231.351781l2.082167-51.591448-55.293076 2.082166h-179.297631v-33.77736l1.850815-46.964411h-86.294215l1.850814 46.964411v33.314657h-151.766768l-65.009851-2.082166 2.313518 51.591447z m83.749345 146.908381h130.251053v66.860665h-130.251053v-66.860665z m213.074991-130.713756h148.990547v68.017423h-148.990547v-68.017423z m0 130.713756h148.990547v66.860665h-148.990547v-66.860665z m501.570661-77.271495l17.351384 20.358957c4.858387 5.783795 20.590309 26.374103 47.195763 61.770926a230.426374 230.426374 0 0 1-27.762214 56.681186 374.789886 374.789886 0 0 1-36.784933 41.874672v-180.685741z m1.388111 338.93036l-1.388111-77.271495v-71.719052c17.814087 14.806514 29.613028 25.448696 35.165471 31.695194l16.657328 19.202197c24.754641-28.918973 40.25521-48.12117 46.270357-57.837945s11.567589-18.276791 15.500569-25.217344l9.022719 15.963273a129.556997 129.556997 0 0 1 8.791368 24.060585l15.963273-12.9557c9.485423-7.634609 27.068158-17.582735 52.748206-29.381676a2483.792723 2483.792723 0 0 0-51.360095-80.51042l6.940553-20.127605c2.54487-7.171905 6.940553-22.903826 13.187052-47.195763 13.881107 14.575162 27.530862 29.150324 40.949265 44.18819a416.433206 416.433206 0 0 1 28.456269 43.031431l-10.642182 24.754641a255.412366 255.412366 0 0 1-84.212048 106.421819c23.36653 11.336237 38.404396 19.202198 45.344949 24.060586l24.060585 17.120031c12.9557-12.030293 23.135178-22.672475 31.001139-32.389249s23.829233-32.157898 47.195763-67.323368l18.276791 32.157897c1.619462 3.007573 6.015146 12.9557 13.418403 29.613028 23.36653-20.82166 44.650894-37.478989 64.315795-50.434688l-12.030292-19.43355-50.66604-74.03257 9.485423-37.247636c3.701628-13.649755 7.403257-31.926546 11.79894-55.061724l6.246499-35.628175 3.470276-17.814087a750.967882 750.967882 0 0 1-84.906103-9.716775v18.739495c0 9.716775-2.54487 29.150324-7.403257 58.532-11.798941-14.34381-22.672475-26.836807-32.38925-38.173044l-15.037866 11.104886a192.947386 192.947386 0 0 1-44.650893 22.672475l7.403257-31.232491 7.403257-38.635747a453.449491 453.449491 0 0 1-83.749345-12.9557l-1.156759 24.060585a235.978817 235.978817 0 0 1-2.776221 28.687621l-5.783795 28.687621a1024.194335 1024.194335 0 0 1-36.090878-45.113597 253.098849 253.098849 0 0 1-36.553581 23.366529l-19.43355 7.865961V328.519529h388.208289v347.027672c0 6.709202-1.388111 12.030293-4.627036 15.963273s-13.187052 5.783795-30.307083 5.321091a378.028811 378.028811 0 0 1-45.807653-3.470277l10.179479 18.739495a163.565709 163.565709 0 0 1 16.657328 41.411968l3.007573 22.441123c43.956838-2.313518 75.652032-6.246498 95.085582-12.261644 19.664901-5.783795 31.23249-14.34381 34.240064-24.754641a110.3548 110.3548 0 0 0 4.858387-34.240063V330.833047l1.850814-71.719052-82.129882 2.082166h-395.842898l-84.212048-2.082166 2.082166 71.719052v352.580115l-2.082166 77.271495h89.995843zM2391.946066 870.114049h-40.023858l-72.875811 149.221899h40.25521l15.269217-33.77736h74.726626l16.425976 33.77736h41.180617l-74.957977-149.221899z m-45.807653 90.227195l25.217345-55.524428 25.911399 55.524428h-51.128744zM3794.169212 990.185624c-18.739494-24.060585-25.911399-29.381676-41.64332-36.553582V953.169339a79.816365 79.816365 0 0 0 20.82166-4.627036c18.045439-5.783795 28.456269-20.358957 28.456269-36.553581 0-14.806514-9.022719-31.926546-30.769787-38.404396-5.552443-1.388111-14.575162-3.701628-43.031431-3.701629h-79.122309v149.453251h37.478988v-62.464981h7.403257c25.448696 0 27.762214 3.007573 50.66604 29.84438l27.068159 32.620601h45.113597L3794.169212 990.185624z m-79.353661-56.912539h-27.993565V895.331393h29.381676c25.217344 0 30.307083 0 37.247637 3.238925 6.940553 3.470277 9.716775 9.254071 9.716774 15.269218 0 4.395684-1.388111 14.112459-14.575162 17.582735-6.47785 1.850814-22.672475 1.850814-33.77736 1.850814z" fill="" p-id="7107"></path></svg>