<svg t="1761532241386" class="icon" viewBox="0 0 1766 1024" version="1.1" xmlns="http://www.w3.org/2000/svg" p-id="5234" width="200" height="200"><path d="M358.1696 56.1408l120.064 11.0592-16.448 108.288 16.4352 84.7104 68.9408 34.6496 79.616 41.792 17.28 135.9488V910.336l-484.7744 28.8256-25.5744-84.1472 9.6-500.5056 64.3456-61.5808 90.944-32.7296 9.6896-66.496-9.6896-137.5616z" fill="#FFFFFF" p-id="5235"></path><path d="M555.584 1007.3216c-0.7424 0-1.5104-0.0256-2.2656-0.0768C259.1488 986.24 25.7408 747.4944 10.368 451.9296c-1.6768-32.0512 8.9728-63.3728 29.2352-85.9392a115.8016 115.8016 0 0 1 85.9776-38.6432c30.5664 0 55.4368-25.5744 55.4368-57.024V135.8208c0-24.6784 17.1904-46.208 40.8576-51.2 3.4432-0.704 6.912-1.0752 10.368-1.0752H363.52c3.4304 0 6.912 0.3712 10.3424 1.088 23.68 4.9792 40.8704 26.496 40.8704 51.2v134.4896c0 31.4496 24.8704 57.024 55.4368 57.024 64.4352 0 116.864 53.6064 116.864 119.5008v529.536c-0.1024 17.1904-14.208 30.9376-31.4496 30.9376" fill="#F2C125" p-id="5236"></path><path d="M363.52 73.3312H232.2304c-4.1216 0-8.2816 0.4352-12.3776 1.28-28.4288 5.9776-49.024 31.7184-49.024 61.2096V270.336c0 25.8048-20.288 46.7968-45.2608 46.7968a126.0288 126.0288 0 0 0-93.5552 42.0352C9.984 383.6928-1.6256 417.7024 0.1792 452.4544c15.6416 300.7104 253.12 543.616 552.4224 564.9792 0.9984 0.0768 1.9968 0.1024 2.9824 0.1024 22.8352 0 41.5104-18.304 41.6256-40.8064V446.848c0-71.5136-56.9856-129.7152-127.04-129.7152-24.96 0-45.248-20.992-45.248-46.7968V135.8208c0-29.4912-20.5952-55.232-48.96-61.1968A61.4784 61.4784 0 0 0 363.52 73.3312m0 20.4544c2.816 0 5.5808 0.2944 8.2688 0.8576 18.688 3.9296 32.7424 20.864 32.7424 41.1776V270.336c0 37.12 29.4016 67.2512 65.6384 67.2512 58.9312 0 106.6624 48.896 106.6624 109.2608v529.792c-0.064 11.52-9.9072 20.48-21.248 20.48-0.512 0-1.024-0.0256-1.536-0.064C266.3552 976.512 35.6736 742.5408 20.544 451.392c-1.4976-28.6336 7.5008-57.2544 26.624-78.5536 19.456-21.6832 47.36-35.264 78.4-35.264 36.2496 0 65.664-30.1184 65.664-67.2512V135.8208c0-20.3136 14.0416-37.248 32.7296-41.1904 2.688-0.5504 5.44-0.8448 8.2688-0.8448H363.52" fill="#FFFFFF" p-id="5237"></path><path d="M179.4304 378.1888c0-21.3376 16.2816-38.6944 36.3136-38.6944 74.9824 0 135.9744-61.824 135.9744-137.8176V95.68h72.6528v105.984c0 75.9808 61.0048 137.8176 135.9744 137.8176 20.032 0 36.3264 17.3568 36.3264 38.6944v501.0176H179.4304V378.1888z m380.9152-129.4848c-25.088 0-45.504-21.0944-45.504-47.0272V67.1744c0-29.3888-20.5056-55.04-48.7936-60.9792a60.928 60.928 0 0 0-12.352-1.28H322.4064a61.184 61.184 0 0 0-12.4032 1.28c-28.2496 5.9392-48.768 31.5904-48.768 60.9792v134.5024c0 25.9328-20.3904 47.0272-45.4912 47.0272-69.9136 0-126.7968 58.0864-126.7968 129.4848v529.536c0 34.3424 27.4304 62.272 61.1584 62.272h475.8784c33.728 0 61.1712-27.9296 61.1712-62.2592v-529.536c0-71.4112-56.8832-129.4976-126.8096-129.4976z" fill="#FFFFFF" p-id="5238"></path><path d="M453.696 25.1392H322.4064c-2.8288 0-5.5936 0.2944-8.2688 0.8576-18.688 3.9296-32.7424 20.864-32.7424 41.1776v134.5024c0 37.12-29.4016 67.2512-65.6512 67.2512-58.9184 0-106.6496 48.896-106.6496 109.2736v529.536c0 23.2192 18.3552 42.048 41.0112 42.048h475.8784c22.656 0 41.024-18.816 41.024-42.048v-529.536c0-60.3776-47.744-109.2736-106.6624-109.2736-36.2368 0-65.6384-30.1184-65.6384-67.2512V67.1744c0-20.3136-14.0544-37.248-32.7552-41.1776a40.576 40.576 0 0 0-8.256-0.8576m-9.1776 50.3552v126.1824c0 64.8448 51.9552 117.6064 115.8272 117.6064 31.1296 0 56.4736 26.432 56.4736 58.9184v521.216H159.2832v-521.216c0-32.4864 25.3312-58.9184 56.4608-58.9184 63.872 0 115.84-52.7616 115.84-117.6064V75.4944h112.9344" fill="#060001" p-id="5239"></path><path d="M388.0448 761.8048c-99.456 0-180.3904-77.8496-180.3904-173.5424h50.2016c0 67.9296 58.4064 123.1744 130.1888 123.1744 71.808 0 130.2016-55.2448 130.2016-123.1744h50.1888c0 95.6928-80.9216 173.5424-180.3904 173.5424M297.8816 573.2864a31.5136 31.5136 0 0 1-31.3728-31.488v-36.6208a31.5136 31.5136 0 0 1 31.36-31.4752 31.5136 31.5136 0 0 1 31.3728 31.4752v36.6208a31.5136 31.5136 0 0 1-31.36 31.488M478.2208 573.2864a31.5136 31.5136 0 0 1-31.3728-31.488v-36.6208a31.5136 31.5136 0 0 1 31.3728-31.4752 31.5136 31.5136 0 0 1 31.3728 31.4752v36.6208a31.5136 31.5136 0 0 1-31.3728 31.488" fill="#060001" p-id="5240"></path><path d="M1646.5664 336.96c-0.9088 5.8368 0.768 11.776 4.608 16.2688 3.8144 4.48 9.408 7.0656 15.296 7.0656h55.68c9.92 0 18.368-7.2448 19.8912-17.0752l18.4064-117.632c2.7648-17.664 3.2512-31.1936 1.4976-41.344v-0.0256c-1.984-11.3536-7.1808-22.1824-15.6416-32.384-14.8352-17.4208-35.712-26.2528-62.0672-26.2528-14.8864 0-28.5696 3.2-40.96 9.6a20.096 20.096 0 0 0-10.8928-3.2h-52.7104c-9.92 0-18.3552 7.2448-19.8912 17.0752l-2.6496 16.896a101.7984 101.7984 0 0 0-7.9616-11.0336c-19.9296-23.7184-47.6032-35.7376-82.2272-35.7376-33.7024 0-63.7056 11.3536-89.216 33.7536-2.8416 2.4832-5.504 5.0816-8.1024 7.7312l0.8448-5.3632c0.5504-3.52 0.0512-7.04-1.1776-10.2784 2.2016-2.7008 3.712-5.9904 4.288-9.6384l6.7072-42.8416a20.2624 20.2624 0 0 0-4.5952-16.2816 20.1216 20.1216 0 0 0-15.3088-7.0656h-55.68c-3.6224 0-7.04 0.9856-9.984 2.688a19.9808 19.9808 0 0 0-9.8176-2.688h-55.68c-3.5328 0-6.8608 0.9472-9.7792 2.56a19.9936 19.9936 0 0 0-9.6256-2.56H1154.1376c-3.4944 0-6.784 0.9344-9.664 2.5216a20.0064 20.0064 0 0 0-9.5616-2.5216h-55.68c-9.92 0-18.368 7.2448-19.904 17.0752l-4.5056 28.8128a68.9152 68.9152 0 0 0-17.92-26.56c-8.32-7.7824-19.3152-13.1456-32.6912-15.9232-11.1616-2.2912-27.3152-3.4048-49.408-3.4048H878.6944c-9.9328 0-18.368 7.2448-19.904 17.0752L823.552 311.6544c-1.92 12.224 1.5616 24.6016 9.5616 33.984 6.656 7.808 15.872 12.7744 25.856 14.1824L823.552 586.304a42.496 42.496 0 0 0 16.256 40.448 20.1472 20.1472 0 0 0-11.3792 14.4384l-7.0272 36.352a20.2496 20.2496 0 0 0 17.792 23.9616c-3.1232 4.48-5.2736 9.6512-6.1056 15.2064L808.8576 880.0384c-1.8816 12.672 1.8304 25.5104 10.1632 35.2256a43.8144 43.8144 0 0 0 33.2416 15.2704h200.9216c9.984 0 18.4704-7.3216 19.9424-17.2288l1.7792-12.032c2.3552 4.2752 5.5296 8.1664 9.5104 11.3792l15.8208 12.8384a20.0704 20.0704 0 0 0 26.88-1.3952c5.9904-5.9904 11.2896-12.224 15.9744-18.6752a38.8096 38.8096 0 0 0 34.8928 21.76h20.032c8.7296 0 16.3072-5.6064 19.0592-13.6448a38.336 38.336 0 0 0 29.056 13.312h18.0096c9.984 0 18.4448-7.3344 19.9168-17.2416l4.736-31.8336a74.8672 74.8672 0 0 0 13.2608 23.1296c5.7216 6.784 12.864 12.672 20.6464 16.9984a72.8576 72.8576 0 0 0 28.6336 8.8576 20.1856 20.1856 0 0 0 21.7088-16.9344l5.6064-35.136a20.2752 20.2752 0 0 0-5.376-17.216 20.1344 20.1344 0 0 0-12.5184-6.1056c2.9696-20.5568 12.6592-82.7904 18.9952-123.136 1.792-9.5488 0-19.1232-4.9536-26.9056h1.8304c9.984 0 18.4576-7.3344 19.9296-17.2416l5.3504-36.0704a20.2624 20.2624 0 0 0-4.672-16.1664 20.1216 20.1216 0 0 0-15.2576-7.0144h-18.048a20.224 20.224 0 0 0 2.7008-7.3856l2.4064-15.3344a106.2016 106.2016 0 0 0 25.7792 20.224c6.0416 3.3408 12.3776 6.0928 18.8544 8.1408a102.784 102.784 0 0 0 21.4144 4.3264 20.0576 20.0576 0 0 0 17.92-8.0384c7.1552 5.4528 15.936 8.4736 25.088 8.4736h31.1808c9.92 0 18.3552-7.2448 19.8912-17.0752L1534.2976 585.3568c2.6752 4.48 5.5808 8.832 8.9856 13.0048 20.0192 24.4736 47.296 36.8768 81.0624 36.8768 23.6416 0 46.3872-6.976 67.6096-20.736 20.5952-13.3632 37.888-31.9104 51.4176-55.104 2.1248-3.6608 3.0336-7.808 2.688-11.8784 3.2768-2.432 5.8112-5.8496 7.1424-9.92a119.744 119.744 0 0 0 4.6976-18.7776c5.504-35.136-1.6384-65.344-21.184-89.792-19.8656-24.8576-47.36-37.44-81.7024-37.44-32.0512 0-61.3888 11.712-87.232 34.8032-3.6096 3.2256-6.976 6.592-10.1888 10.0352l11.2896-72.1152c0.2432-1.536 0.2816-3.072 0.1664-4.5824 2.1376 0.3328 4.288 0.5632 6.4768 0.5632H1605.9776c9.9328 0 18.368-7.2448 19.904-17.0752l16.448-105.1264c3.1104-19.84 11.0464-19.84 17.4208-19.84 1.5232 0 2.4704 0.1408 2.9952 0.256 0.4736 1.3696 1.472 5.7472-0.0768 15.5776l-16.0896 102.8736z" fill="#FFFFFF" p-id="5241"></path><path d="M976.3456 165.1328c-2.0608 13.1584-11.9936 19.7376-29.8112 19.7376h-22.272l6.0544-38.72h22.272c17.8176 0 25.728 6.336 23.7568 18.9824m-2.56 94.72c-2.4576 15.6416-14.208 23.4624-35.2256 23.4624h-29.696l7.0528-45.0816h29.696c21.0304 0 30.4256 7.1936 28.16 21.6064m26.368-167.424c-9.6896-2.0096-24.832-3.008-45.3632-3.008h-76.0832l-35.264 225.3952c-2.0736 13.2608 8.0512 25.2672 21.2992 25.2672h53.0688c23.5008 0 40.8064-1.4464 51.904-4.3392 11.0848-2.8672 22.016-8.704 32.8064-17.4592 17.3184-14.2848 27.6864-32.32 31.104-54.1184 4.608-29.568-5.952-48.9856-31.7184-58.24 20.8128-11.2768 32.9856-28.1984 36.5184-50.7392 3.456-22.0416-1.6512-39.3216-15.2832-51.8656-5.6064-5.248-13.2736-8.8832-22.976-10.8928M1069.4016 152.1664L1043.968 314.8032c-2.0736 13.2608 8.0384 25.2672 21.2992 25.2672H1095.68l29.4016-187.904h-55.68zM1128.192 132.2624l6.7072-42.8544h-55.68l-6.7072 42.8544zM1154.1248 89.408L1118.848 314.8032c-2.0608 13.2608 8.0384 25.2672 21.2992 25.2672h30.4384l39.2064-250.6624h-55.68zM1229.2096 89.408l-35.264 225.3952c-2.0736 13.2608 8.0384 25.2672 21.2864 25.2672h30.4384l39.2192-250.6624h-55.68zM1353.6768 132.2624l6.7072-42.8544h-55.68l-6.7072 42.8544zM1294.8736 152.1664l-25.4464 162.6368c-2.0608 13.2608 8.0512 25.2672 21.2992 25.2672h30.4384l29.4016-187.904h-55.68zM1495.6288 239.744c-2.1248 13.632-8.0896 25.0624-17.8944 34.2656-9.8048 9.216-20.992 13.824-33.536 13.824-12.8128 0-22.7456-4.608-29.7984-13.824-7.0656-9.216-9.5104-20.7616-7.36-34.6496a56.5376 56.5376 0 0 1 18.2016-33.8944c10.0608-9.216 21.376-13.824 33.92-13.824 12.3136 0 21.9904 4.672 29.0304 14.0032 7.04 9.344 9.5104 20.7104 7.424 34.0864m-28.6848-100.3392c-28.8128 0-54.1184 9.6-75.9424 28.7488-21.824 19.1744-35.0208 43.4176-39.5904 72.7296-4.4416 28.544 1.3568 52.224 17.3952 71.0272 16.0256 18.7776 38.464 28.1728 67.2768 28.1728 28.544 0 53.7344-9.5104 75.5456-28.5568 21.7856-19.0336 34.944-42.9696 39.424-71.7824 4.48-28.8-1.28-52.736-17.28-71.7696s-38.272-28.5696-66.8288-28.5696M1730.9824 164.9536c-10.88-12.7616-26.4704-19.1488-46.7456-19.1488-21.7856 0-40.1024 8.768-54.976 26.2912l3.1232-19.904h-52.7104l-25.4464 162.6368c-2.0736 13.2608 8.0512 25.2544 21.2992 25.2544h30.4384l16.448-105.1136c3.84-24.6144 16.2816-36.928 37.3248-36.928 19.3024 0 26.9056 13.056 22.8224 39.1808l-16.0896 102.8608h55.68l18.3936-117.632c2.3808-15.2576 2.9056-26.8544 1.536-34.752-1.3696-7.8848-5.0688-15.4624-11.0976-22.7456M978.048 437.888c-2.0864 13.312-12.16 19.968-30.1952 19.968H925.312l6.144-39.2064h22.5536c18.0352 0 26.048 6.4 24.0512 19.2384m-2.5984 95.8976c-2.4704 15.8592-14.3744 23.7824-35.6736 23.7824h-30.08l7.1424-45.6704h30.08c21.2992 0 30.8096 7.296 28.5312 21.888m26.7136-169.5616c-9.8304-2.0224-25.1648-3.0336-45.952-3.0336h-77.056l-35.712 228.2496c-2.0992 13.44 8.1408 25.6 21.5552 25.6h53.76c23.808 0 41.3184-1.4592 52.5568-4.3776 11.2256-2.9056 22.2976-8.8064 33.216-17.6896 17.5616-14.464 28.0576-32.7296 31.5008-54.8096 4.6976-29.9392-6.016-49.6128-32.1152-58.9952 21.0816-11.4176 33.408-28.544 36.992-51.392 3.4816-22.3232-1.664-39.808-15.4752-52.5184-5.6832-5.312-13.44-8.9984-23.2704-11.0336M1197.1584 513.408c-2.1504 13.824-8.2304 25.3952-18.2016 34.7264-9.984 9.344-21.376 14.0032-34.1376 14.0032-13.0432 0-23.168-4.672-30.336-14.0032-7.1808-9.3312-9.6768-21.0304-7.488-35.0976a57.3312 57.3312 0 0 1 18.5216-34.3296c10.24-9.344 21.76-14.0032 34.5344-14.0032 12.5312 0 22.3744 4.736 29.5424 14.1952 7.168 9.4592 9.6896 20.9536 7.5648 34.5216m-29.1968-101.632c-29.3248 0-55.104 9.728-77.312 29.12-22.208 19.4176-35.6352 43.968-40.2688 73.6512-4.5312 28.928 1.3568 52.9024 17.6896 71.936 16.3072 19.0208 39.1424 28.544 68.48 28.544 29.056 0 54.6816-9.6256 76.8768-28.928 22.1824-19.264 35.5584-43.52 40.128-72.704 4.5568-29.184-1.3056-53.4016-17.5744-72.6784-16.2816-19.2768-38.9504-28.928-68.0192-28.928M1492.5824 361.1904l-35.7632 228.608c-2.0736 13.248 8.0256 25.2416 21.2608 25.2416h31.1808l39.7184-253.8496h-56.3968zM1605.5808 493.248c8.2176-22.0672 23.9744-33.1136 47.2832-33.1136 10.7648 0 19.584 3.0464 26.3936 9.1392 6.7968 6.08 10.4448 14.08 10.9056 23.9744h-84.5824z m49.4208-81.4464c-27.0592 0-51.6736 9.8944-73.8176 29.696-22.144 19.7888-35.4304 43.8912-39.8848 72.32-4.4032 28.16 1.4464 52.0704 17.536 71.7184 16.1024 19.6736 37.9264 29.4912 65.4976 29.4912 19.7888 0 38.6944-5.8368 56.6784-17.4976 17.9968-11.6736 32.9856-27.776 44.9792-48.3456h-57.1392l-3.0592 2.6752c-12.0704 9.8944-24.384 14.848-36.9024 14.848-11.0336 0-19.8656-3.2384-26.496-9.7152-6.6304-6.464-9.728-15.0272-9.3184-25.6896h140.9792c1.8944-5.824 3.2256-11.0336 3.9296-15.616 4.608-29.4144-1.0624-54.0928-16.9856-74.0096s-37.9264-29.8752-65.9968-29.8752zM1429.9648 442.9696h25.0112l6.784-43.392h-24.9984l6.016-38.4h-56.4096l-6.016 38.4h-30.72l6.016-38.4h-56.3968l-6.016 38.4h-19.1872l-6.784 43.392h19.2l-11.0848 70.592c-0.2816 1.536-0.6784 3.776-0.9856 6.4896-2.56 22.8736 4.864 40.6016 6.7456 44.8256 3.968 9.0112 8.9088 15.808 12.6336 20.2496a84.2752 84.2752 0 0 0 24.6528 20.0576 82.944 82.944 0 0 0 28.288 9.1392l8.5376-54.4256a26.3936 26.3936 0 0 1-22.6048-13.44 28.48 28.48 0 0 1-3.5584-15.5136l5.8368-37.312 0.2944-1.8048 7.6288-48.8576h30.72l-11.2768 71.936a76.4544 76.4544 0 0 0-0.7296 4.8896 88.2176 88.2176 0 0 0 6.656 44.9664 85.1456 85.1456 0 0 0 36.352 39.8848 81.4976 81.4976 0 0 0 32.3456 10.0224l8.7552-54.976a26.3168 26.3168 0 0 1-11.5328-1.1392 27.008 27.008 0 0 1-16.1536-15.0784 26.944 26.944 0 0 1-1.4976-15.8976l13.4784-84.608M1035.5328 747.648c0.4608-3.072-1.664-5.5936-4.4672-5.5936H896.7808c-2.7904 0-5.6704 2.5216-6.1312 5.5936l-5.888 40.4096H1029.632l5.9008-40.4096z m-164.224 125.4656h144.896l8.064-48.9856H879.4112l-8.0768 48.9856z m242.7136-228.0576l-6.3488 36.352H991.872l-11.968 24.3072h89.7152c7.808 0 12.9792 6.4256 11.8528 13.9776L1053.184 910.336H852.2496a23.7952 23.7952 0 0 1-23.4752-27.328l24.2432-163.328c1.1136-7.5392 8.192-13.9648 16-13.9648h64.9088l11.6992-24.32h-104.448l7.0144-36.352h265.8304zM1176.6656 769.1776h-10.8672l8.7552-58.9952h10.8672l-8.7552 58.9952z m199.9488-88.064l5.3504-36.0576H1253.5168l-5.5552 36.0576h11.6864l-13.6192 88.064h-27.5712l8.7552-58.9952h13.0944l5.3888-36.3392h-15.872l12.2496-31.872-37.12-8.9344-14.6944 40.8064h-10.0352l-2.5856-40.8064-39.7696 8.9472 2.7904 31.872h-20.608l-5.952 36.3264h18.6624l-8.7552 58.9952h-22.272l-5.9648 36.3264h22.016c-5.2224 26.2016-12.288 48.3456-24.576 66.432a18.752 18.752 0 0 0 3.8528 24.9984l15.8336 12.8384c27.136-27.1104 38.848-60.928 46.9504-104.2688h11.4304l-11.8656 79.872a18.816 18.816 0 0 0 18.56 21.6064h20.032l15.0656-101.4784h27.328l-12.3648 79.9616a18.3424 18.3424 0 0 0 18.0864 21.1712h18.0096l24.4992-165.1456h28.1856c3.072 0 4.1728 1.9584 3.7632 4.7488 0 0-15.4496 98.4192-15.616 99.7504a56.4096 56.4096 0 0 0 4.2624 28.736 54.4 54.4 0 0 0 23.2448 25.4976 52.416 52.416 0 0 0 20.6848 6.4128l5.5936-35.1488a16.768 16.768 0 0 1-15.232-6.1952 17.4336 17.4336 0 0 1-3.712-9.0112c-0.2304-2.2016 20.096-131.5584 20.096-131.5584 2.1376-10.624-4.8896-19.5712-15.488-19.5712h-49.856l3.52-24.0384h78.5408z" fill="#060001" p-id="5242"></path><path d="M1292.992 833.8688l-32.576-56.6016 33.6384-19.4816 32.576 56.6016z" fill="#060001" p-id="5243"></path></svg>