<svg t="1761532194257" class="icon" viewBox="0 0 1024 1024" version="1.1" xmlns="http://www.w3.org/2000/svg" p-id="5064" width="200" height="200"><path d="M68.484076 256v512L512 1024l443.515924-256v-512L512 0z" fill="#F7EA72" p-id="5065"></path><path d="M328.723567 385.793631a184.254777 160.122293 0 1 0 368.509554 0 184.254777 160.122293 0 1 0-368.509554 0Z" fill="#4D4D4D" p-id="5066"></path><path d="M512.978344 550.481529c56.417834 0 110.226752 5.217834 159.143949 14.349044-36.850955-41.416561-92.942675-68.157962-155.882803-68.157962h-1.630573c-61.635669 0.326115-116.42293 26.415287-152.947771 66.527389 45.982166-8.152866 95.877707-12.718471 148.056051-12.718471h3.261147z" fill="#4D4D4D" p-id="5067"></path><path d="M516.23949 643.098089c71.419108 0 138.598726 7.826752 198.277707 22.175796h0.65223c-0.326115-2.608917-0.652229-5.543949-1.304459-8.152866-3.261146-20.545223-9.457325-30.002548-17.610191-47.938853-1.956688-0.652229-3.913376-0.978344-5.870064-1.304459-52.830573-12.718471-111.857325-19.892994-174.145223-19.892994h-3.261146c-60.983439 0.326115-118.705732 7.174522-170.884076 19.892994-1.956688 0.326115-3.913376 0.978344-5.870064 1.304459-8.478981 17.936306-14.349045 27.719745-17.610191 47.938853-0.326115 2.608917-0.978344 5.543949-1.304459 8.152866h0.652229c58.700637-14.02293 124.901911-21.849682 194.690446-22.175796h3.587261z" fill="#F9BB23" p-id="5068"></path><path d="M516.23949 739.95414c66.853503 0 130.44586 6.848408 187.189809 19.240764 0.652229-1.956688 1.304459-3.587261 1.956688-5.543949 5.870064-17.610191 9.783439-30.002548 11.087898-49.243312-3.913376-0.978344-7.826752-1.956688-11.740127-2.608917-57.070064-12.392357-120.988535-19.566879-188.168153-19.566879h-3.587261c-65.875159 0.326115-128.489172 7.174522-184.580892 19.566879-3.913376 0.978344-7.826752 1.630573-11.740127 2.608917 1.304459 19.566879 4.89172 31.633121 11.087898 49.243312 0.652229 1.956688 1.304459 3.587261 1.956688 5.543949 55.765605-12.066242 118.053503-18.91465 183.602548-19.240764h2.935031z" fill="#4D4D4D" p-id="5069"></path><path d="M406.338854 744.84586c82.833121-59.678981 78.267516-207.408917 78.267515-207.408917s-138.598726-50.873885-221.431847 8.805095-117.727389 152.621656-78.267516 207.408917 138.598726 50.873885 221.431848-8.805095zM628.42293 744.84586c-82.833121-59.678981-78.267516-207.408917-78.267516-207.408917s138.598726-50.873885 221.431847 8.805095 117.727389 152.621656 78.267516 207.408917c-39.459873 54.787261-138.598726 50.873885-221.431847-8.805095z" fill="#E6E6E6" opacity=".5" p-id="5070"></path><path d="M381.880255 841.701911c8.152866 4.565605 16.631847 9.13121 25.763057 12.718471 25.110828 10.435669 54.461146 17.610191 85.768153 19.892994 2.608917 0.326115 5.543949 0.326115 8.152866 0.326114 4.23949 0.326115 8.478981 42.394904 13.044586 42.394905h1.630573c4.89172 0 9.783439-42.06879 14.67516-42.394905 2.608917 0 5.543949-0.326115 8.152866-0.326114 31.307006-2.282803 60.657325-9.13121 85.768153-19.892994 8.478981-3.587261 16.631847-7.500637 24.132484-11.740127-32.611465-3.913376-80.550318-10.435669-133.707007-10.435669-55.113376 0-97.834395 6.522293-133.380891 9.457325z" fill="#4D4D4D" p-id="5071"></path><path d="M688.101911 780.066242c-56.743949-9.457325-113.161783-17.936306-171.862421-16.305732h-3.587261c-59.026752 0-114.466242 6.522293-166.644586 16.305732-0.978344 0.326115-8.478981 3.261146-9.783439 3.261147 6.522293 13.044586 22.828025 32.611465 32.611465 39.133757 39.133758-3.261146 92.942675-9.783439 150.012739-9.783439 55.43949 0 104.356688 6.522293 143.490446 9.783439 16.305732-9.783439 29.350318-26.089172 35.872611-39.133757-6.848408-3.261146-10.109554-3.261146-10.109554-3.261147z" fill="#F9BB23" p-id="5072"></path></svg>