<svg width="44" height="45" viewBox="0 0 44 45" fill="none" xmlns="http://www.w3.org/2000/svg">
<rect y="0.171875" width="44" height="44" rx="12" fill="#1DD061"/>
<path d="M29.8856 13C29.8856 13 28.5141 13 26.2856 12.1429C23.8856 11.2857 22.4284 10.3429 22.4284 10.3429L21.7427 10L21.1427 10.3429C21.1427 10.3429 19.5999 11.2857 17.2856 12.1429C14.9713 12.9143 13.6856 13 13.6856 13L12.5713 13.0857V24.9143C12.5713 29.2857 20.7141 34 21.7427 34C22.6856 34 30.9141 29.2857 30.9141 24.9143V13.0857L29.8856 13ZM21.1427 26.6286L16.857 22.6857L18.1427 21.0571L20.8856 23.5429L26.0284 17.1143L27.5713 18.5714L21.1427 26.6286Z" fill="white"/>
</svg>
