<svg width="20" height="21" viewBox="0 0 20 21" fill="none" xmlns="http://www.w3.org/2000/svg">
<g clip-path="url(#clip0_18229_920)">
<path d="M19.9479 8.58261C19.8169 8.17764 19.4577 7.89 19.0328 7.8517L13.2602 7.32755L10.9776 1.98485C10.8093 1.5933 10.426 1.33984 10.0001 1.33984C9.57422 1.33984 9.19091 1.5933 9.0226 1.98576L6.73998 7.32755L0.966514 7.8517C0.542309 7.89091 0.184023 8.17764 0.0523365 8.58261C-0.0793503 8.98759 0.0422654 9.43179 0.363166 9.71179L4.72653 13.5385L3.43987 19.2062C3.34573 19.6229 3.50747 20.0537 3.85325 20.3036C4.0391 20.4379 4.25655 20.5063 4.47582 20.5063C4.66488 20.5063 4.85242 20.4553 5.02073 20.3546L10.0001 17.3786L14.9776 20.3546C15.3419 20.5737 15.801 20.5537 16.146 20.3036C16.492 20.0529 16.6536 19.622 16.5594 19.2062L15.2728 13.5385L19.6361 9.71256C19.957 9.43179 20.0796 8.98836 19.9479 8.58261Z" fill="currentColor"/>
</g>
<defs>
<clipPath id="clip0_18229_920">
<rect width="20" height="20" fill="white" transform="translate(0 0.910156)"/>
</clipPath>
</defs>
</svg>
