<svg width="33" height="33" viewBox="0 0 33 33" fill="none" xmlns="http://www.w3.org/2000/svg">
<rect x="0.5" y="0.910156" width="32" height="32" rx="16" fill="#111116"/>
<g clip-path="url(#clip0_18229_6412)">
<path d="M23.1524 9.90394V21.4945C23.1524 21.5599 23.1364 21.6242 23.1057 21.682C23.0751 21.7397 23.0307 21.7891 22.9766 21.8257C22.9225 21.8624 22.8602 21.8852 22.7952 21.8922C22.7302 21.8992 22.6645 21.8901 22.6038 21.8659L15.1524 18.8853L21.8217 10.7339C21.8341 10.7185 21.8404 10.699 21.8393 10.6792C21.8382 10.6594 21.8298 10.6408 21.8157 10.6268C21.8016 10.6129 21.7829 10.6047 21.7631 10.6038C21.7433 10.6029 21.7238 10.6093 21.7085 10.6219L12.7524 18.0853L8.20414 16.7858C8.12532 16.7633 8.05532 16.7171 8.00362 16.6534C7.95192 16.5898 7.92102 16.5118 7.91511 16.4301C7.90919 16.3483 7.92854 16.2667 7.97053 16.1963C8.01253 16.1259 8.07514 16.0701 8.1499 16.0364L22.5882 9.53914C22.6491 9.51173 22.716 9.5 22.7826 9.50505C22.8492 9.51009 22.9135 9.53174 22.9696 9.56801C23.0257 9.60429 23.0718 9.65404 23.1037 9.71272C23.1357 9.7714 23.1524 9.83714 23.1524 9.90394ZM14.1444 22.9583C14.1644 23.0282 14.2031 23.0914 14.2563 23.1409C14.3095 23.1905 14.3752 23.2247 14.4463 23.2397C14.5175 23.2547 14.5914 23.2501 14.6601 23.2262C14.7288 23.2024 14.7897 23.1602 14.8363 23.1043L16.7135 20.8518L13.1439 19.4566L14.1444 22.9583Z" fill="white"/>
</g>
<defs>
<clipPath id="clip0_18229_6412">
<rect width="16" height="14.9333" fill="white" transform="translate(7 8.91016)"/>
</clipPath>
</defs>
</svg>
